# xmcd
#
# Track frame offsets: 
#        150
#        13590
#        27008
#        39232
#        62915
#        80654
#        87592
#        97218
#        109261
#        118313
#        128253
#        140704
#        152323
#        170759
#
# Disc length: 2444 seconds
#
# Revision: 0
# Processed by: cddbd v1.5.2PL0 Copyright (c) Steve Scherf et al.
# Submitted via: ExactAudioCopyFreeDBPlugin 1.0
#
DISCID=b9098a0e
DTITLE=Various Artist - Tid med Gud - Lovsång and tillbedjan för alla generatio
DTITLE=ner
DYEAR=2012
DGENRE=Barnmusik
TTITLE0=Kom med och sjung
TTITLE1=Jubelropet
TTITLE2=Tack, tack Jesus
TTITLE3=Vid ditt kors, Förlåt mig
TTITLE4=Spikarnas lovsång
TTITLE5=Helg ande kom hjälp oss idag
TTITLE6=Lys upp mörkret
TTITLE7=Är någon törstig
TTITLE8=Be så ska ni få
TTITLE9=Jag har hört om dina gärningar
TTITLE10=Med ena handen på hjärtat
TTITLE11=Du är Gud, Du är underbar
TTITLE12=Vi vill ge dig ära, Så stor är vår Gud
TTITLE13=Välsignelsen
EXTD=
EXTT0=
EXTT1=
EXTT2=
EXTT3=
EXTT4=
EXTT5=
EXTT6=
EXTT7=
EXTT8=
EXTT9=
EXTT10=
EXTT11=
EXTT12=
EXTT13=
PLAYORDER=
